<svg width="111" height="40" viewBox="0 0 111 40" fill="none" xmlns="http://www.w3.org/2000/svg">
<g clip-path="url(#clip0_475_6036)">
<path d="M52.7029 6.2966H50.7939V12.9246C50.7939 14.5816 51.1757 15.8409 51.9559 16.7026C52.7195 17.5642 53.8648 17.995 55.3588 17.995C56.8527 17.995 57.9981 17.5642 58.7782 16.7026C59.5584 15.8409 59.9568 14.5816 59.9568 12.9246V6.2966H58.0479V13.024C58.0479 14.1176 57.8155 14.9461 57.3839 15.493C56.9523 16.0398 56.2717 16.3049 55.3588 16.3049C54.4458 16.3049 53.7818 16.0398 53.3502 15.493C52.9187 14.9461 52.7029 14.1176 52.7029 13.024V6.2966Z" fill="white"/>
<path d="M62.9617 14.1176L61.0859 14.0845C61.0859 14.8467 61.2851 15.5261 61.6835 16.1226C62.0819 16.7191 62.6297 17.1665 63.3269 17.4979C64.024 17.8293 64.8208 17.995 65.7504 17.995C66.5803 17.995 67.3107 17.8459 67.9747 17.5476C68.622 17.2494 69.1366 16.8185 69.5018 16.2717C69.867 15.7415 70.0496 15.1284 70.0496 14.4325C70.0496 13.7365 69.867 13.1566 69.535 12.7258C69.1864 12.2949 68.7382 11.9801 68.2071 11.7481C67.6593 11.5327 67.0119 11.3504 66.2649 11.2179C65.518 11.0853 64.9536 10.9693 64.5552 10.8533C64.1568 10.7539 63.8248 10.5882 63.5924 10.3562C63.3601 10.1408 63.2439 9.84257 63.2439 9.46146C63.2439 8.93122 63.443 8.53354 63.8414 8.23528C64.2398 7.93702 64.7876 7.78789 65.4682 7.78789C66.1653 7.78789 66.7297 7.97016 67.1945 8.3347C67.6427 8.69924 67.9083 9.17977 67.9747 9.77629H69.8504C69.8172 9.08035 69.6014 8.46726 69.2362 7.92045C68.8544 7.39021 68.3399 6.95939 67.6925 6.64456C67.0285 6.3463 66.2981 6.1806 65.4682 6.1806C64.6548 6.1806 63.941 6.32973 63.3103 6.61142C62.6795 6.90968 62.1981 7.30736 61.8495 7.82103C61.5009 8.35127 61.3349 8.93122 61.3349 9.59402C61.3349 10.3231 61.5009 10.9031 61.8329 11.3339C62.1649 11.7813 62.6131 12.1127 63.1443 12.3281C63.6754 12.5435 64.3228 12.7092 65.0864 12.8417C65.8168 12.9743 66.3977 13.1069 66.8127 13.2229C67.2111 13.3554 67.5431 13.5211 67.7755 13.7531C68.0079 13.9851 68.1407 14.2833 68.1407 14.6644C68.1407 15.2113 67.9083 15.6421 67.4767 15.9403C67.0451 16.2386 66.4641 16.3877 65.767 16.3877C64.9536 16.3877 64.2896 16.1889 63.7916 15.7746C63.2937 15.3604 63.0115 14.8136 62.9617 14.1176Z" fill="white"/>
<path d="M76.4236 14.1176L74.5479 14.0845C74.5479 14.8467 74.747 15.5261 75.1454 16.1226C75.5438 16.7191 76.0916 17.1665 76.7888 17.4979C77.4859 17.8293 78.2827 17.995 79.2123 17.995C80.0422 17.995 80.7726 17.8459 81.4366 17.5476C82.084 17.2494 82.5985 16.8185 82.9637 16.2717C83.3289 15.7415 83.5115 15.1284 83.5115 14.4325C83.5115 13.7365 83.3289 13.1566 82.9969 12.7258C82.6483 12.2949 82.2002 11.9801 81.669 11.7481C81.1212 11.5327 80.4738 11.3504 79.7269 11.2179C78.9799 11.0853 78.4155 10.9693 78.0171 10.8533C77.6187 10.7539 77.2867 10.5882 77.0544 10.3562C76.822 10.1408 76.7058 9.84257 76.7058 9.46146C76.7058 8.93122 76.905 8.53354 77.3033 8.23528C77.7017 7.93702 78.2495 7.78789 78.9301 7.78789C79.6273 7.78789 80.1916 7.97016 80.6564 8.3347C81.1046 8.69924 81.3702 9.17977 81.4366 9.77629H83.3123C83.2791 9.08035 83.0633 8.46726 82.6981 7.92045C82.3164 7.39021 81.8018 6.95939 81.1544 6.64456C80.4904 6.3463 79.7601 6.1806 78.9301 6.1806C78.1167 6.1806 77.4029 6.32973 76.7722 6.61142C76.1414 6.90968 75.66 7.30736 75.3114 7.82103C74.9628 8.35127 74.7968 8.93122 74.7968 9.59402C74.7968 10.3231 74.9628 10.9031 75.2948 11.3339C75.6268 11.7813 76.075 12.1127 76.6062 12.3281C77.1374 12.5435 77.7847 12.7092 78.5483 12.8417C79.2787 12.9743 79.8597 13.1069 80.2746 13.2229C80.673 13.3554 81.005 13.5211 81.2374 13.7531C81.4698 13.9851 81.6026 14.2833 81.6026 14.6644C81.6026 15.2113 81.3702 15.6421 80.9386 15.9403C80.507 16.2386 79.926 16.3877 79.2289 16.3877C78.4155 16.3877 77.7515 16.1889 77.2535 15.7746C76.7556 15.3604 76.4734 14.8136 76.4236 14.1176Z" fill="white"/>
<path d="M85.0555 10.9859V15.5924C85.0555 16.3877 85.2381 16.9677 85.6032 17.3322C85.9684 17.7133 86.566 17.8956 87.3794 17.8956H89.1057V16.3214H87.7446C87.4126 16.3214 87.1968 16.2552 87.064 16.1226C86.9312 15.99 86.8648 15.7415 86.8648 15.4101V10.9859H88.9065V9.41175H86.8648V7.04224H85.0555V9.41175H83.5781V10.9859H85.0555Z" fill="white"/>
<path d="M97.6043 16.3381H97.2558C96.874 16.3381 96.6914 16.1392 96.6914 15.7415V12.3944C96.6914 11.4002 96.376 10.638 95.7618 10.1077C95.131 9.5775 94.2513 9.31238 93.1225 9.31238C92.0436 9.31238 91.1804 9.56093 90.5164 10.0249C89.8524 10.4888 89.4707 11.1516 89.3877 11.9967H91.1472C91.2136 11.6322 91.4128 11.3339 91.7448 11.1019C92.0768 10.87 92.5083 10.754 93.0395 10.754C93.6205 10.754 94.0853 10.9031 94.4173 11.1682C94.7493 11.4333 94.9152 11.8144 94.9152 12.2784V12.7921H92.7739C91.5788 12.7921 90.6824 13.0406 90.0682 13.5046C89.4375 13.9685 89.1387 14.6479 89.1387 15.5096C89.1387 16.2883 89.4209 16.9014 90.0018 17.3323C90.5662 17.7796 91.3298 17.9951 92.2926 17.9951C93.5209 17.9951 94.4505 17.5145 95.0978 16.5369C95.0978 16.9843 95.214 17.3157 95.463 17.5477C95.6954 17.7796 96.0938 17.8956 96.6582 17.8956H97.6043V16.3381ZM94.9152 14.1177V14.4159C94.8986 15.0787 94.6829 15.609 94.2679 16.0067C93.8529 16.4043 93.2719 16.6032 92.5415 16.6032C92.0436 16.6032 91.6618 16.5038 91.3796 16.2718C91.0974 16.0564 90.9646 15.7581 90.9646 15.3936C90.9646 14.9793 91.114 14.6645 91.4128 14.4491C91.7116 14.2337 92.1266 14.1177 92.6909 14.1177H94.9152Z" fill="white"/>
<path d="M102.784 9.41174H102.385C101.721 9.41174 101.207 9.52773 100.825 9.75971C100.426 9.99169 100.111 10.29 99.8787 10.6876L99.6795 9.41174H98.0859V17.8956H99.8787V13.6371C99.8787 12.908 100.045 12.2949 100.377 11.8144C100.709 11.3339 101.24 11.0853 101.987 11.0853H102.784V9.41174Z" fill="white"/>
<path d="M50.1963 23.8608V25.551H53.7817V35.4598H55.6907V25.551H59.2761V23.8608H50.1963Z" fill="white"/>
<path d="M63.9408 26.976H63.5424C62.8784 26.976 62.3638 27.0919 61.9821 27.3239C61.5837 27.5559 61.2683 27.8542 61.0359 28.2518L60.8367 26.976H59.2432V35.4598H61.0359V31.2013C61.0359 30.4722 61.2019 29.8591 61.5339 29.3786C61.8659 28.8981 62.397 28.6495 63.144 28.6495H63.9408V26.976Z" fill="white"/>
<path d="M72.1904 26.976H70.3977V31.1847C70.3977 32.0629 70.1985 32.7589 69.8167 33.256C69.4183 33.7531 68.8871 34.0016 68.2065 34.0016C67.5426 34.0016 67.0612 33.7862 66.7292 33.3554C66.3972 32.9246 66.2312 32.2949 66.2312 31.4664V26.976H64.4385V31.6487C64.4385 33.024 64.7373 34.0182 65.368 34.6313C65.9822 35.261 66.7956 35.5592 67.7916 35.5592C68.8871 35.5592 69.7669 35.1781 70.4143 34.3827L70.6134 35.4598H72.1904V26.976Z" fill="white"/>
<path d="M80.0255 34.7308C80.706 34.1674 81.1376 33.4052 81.3036 32.411H79.4777C79.3615 32.9081 79.1291 33.3058 78.7639 33.604C78.3987 33.9023 77.9339 34.0348 77.3862 34.0348C76.6558 34.0348 76.0748 33.7863 75.6432 33.256C75.2116 32.7258 74.9958 32.0464 74.9958 31.2014C74.9958 30.3729 75.2116 29.7101 75.6432 29.1798C76.0748 28.6662 76.6558 28.401 77.3862 28.401C77.9173 28.401 78.3655 28.5502 78.7307 28.8318C79.0959 29.1301 79.3283 29.5112 79.4611 29.9918H81.3036C81.1376 29.0307 80.706 28.285 80.0421 27.7217C79.3615 27.1583 78.4983 26.8766 77.436 26.8766C76.5728 26.8766 75.8258 27.0589 75.1784 27.4234C74.5311 27.7879 74.0331 28.285 73.6845 28.9313C73.3193 29.5941 73.1533 30.3397 73.1533 31.2014C73.1533 32.063 73.3193 32.8252 73.6679 33.488C74.0165 34.1508 74.5145 34.6645 75.1618 35.029C75.7926 35.3936 76.5396 35.5593 77.3862 35.5593C78.4485 35.5593 79.3283 35.2942 80.0255 34.7308Z" fill="white"/>
<path d="M82.2334 23.8608V35.4598H84.0261V33.2891L85.5367 31.6984L88.0598 35.4598H90.1845L86.8148 30.3894L89.9853 26.976H87.9104L84.0261 31.1185V23.8608H82.2334Z" fill="white"/>
<path d="M92.342 23.8939C92.1263 23.6951 91.8608 23.5791 91.5621 23.5791C91.2468 23.5791 90.9812 23.6951 90.7821 23.8939C90.5664 24.0928 90.4668 24.3579 90.4668 24.6562C90.4668 24.971 90.5664 25.2361 90.7821 25.4349C90.9812 25.6338 91.2468 25.7332 91.5621 25.7332C91.8608 25.7332 92.1263 25.6338 92.342 25.4349C92.5412 25.2361 92.6573 24.971 92.6573 24.6562C92.6573 24.3579 92.5412 24.0928 92.342 23.8939ZM90.6659 26.976V35.4598H92.4582V26.976H90.6659Z" fill="white"/>
<path d="M100.642 27.8045C100.011 27.1914 99.1809 26.8766 98.185 26.8766C97.0064 26.8766 96.0934 27.2908 95.4627 28.0862L95.2635 26.976H93.7031V35.4599H95.4959V31.1848C95.4959 30.3231 95.6951 29.6603 96.0934 29.1632C96.4918 28.6661 97.0562 28.4176 97.77 28.4176C98.434 28.4176 98.9319 28.633 99.2805 29.0473C99.6125 29.4781 99.7951 30.0912 99.7951 30.8865V35.4599H101.604V30.7871C101.604 29.4284 101.272 28.4342 100.642 27.8045Z" fill="white"/>
<path d="M111 26.976H109.44L109.24 28.3016C108.942 27.8708 108.576 27.5228 108.112 27.2577C107.647 27.0091 107.082 26.8766 106.452 26.8766C105.688 26.8766 104.991 27.0589 104.393 27.4234C103.779 27.7879 103.298 28.285 102.949 28.9313C102.601 29.5941 102.435 30.3397 102.435 31.1848C102.435 32.0796 102.601 32.8418 102.949 33.488C103.281 34.1343 103.763 34.6314 104.377 34.9793C104.974 35.3273 105.671 35.493 106.452 35.493C107.68 35.493 108.593 35.029 109.224 34.1011V35.0456C109.224 36.6363 108.41 37.4151 106.784 37.4151C106.153 37.4151 105.638 37.2991 105.24 37.034C104.841 36.7689 104.576 36.4043 104.476 35.9238H102.65C102.717 36.8683 103.115 37.5974 103.846 38.1111C104.559 38.6247 105.489 38.8733 106.651 38.8733C108.128 38.8733 109.224 38.5584 109.937 37.8956C110.635 37.2328 111 36.3049 111 35.1119V26.976ZM108.543 33.2229C108.078 33.7366 107.481 33.9851 106.75 33.9851C106.003 33.9851 105.406 33.7366 104.958 33.2063C104.493 32.6927 104.277 32.0133 104.277 31.1848C104.277 30.3563 104.493 29.6935 104.958 29.1632C105.406 28.6496 106.003 28.3845 106.75 28.3845C107.481 28.3845 108.078 28.6496 108.543 29.1798C108.991 29.7101 109.224 30.3894 109.224 31.2179C109.224 32.0464 108.991 32.7092 108.543 33.2229Z" fill="white"/>
<path d="M21.5132 18.7076C22.4926 19.4366 9.42887 40.9611 10.8398 39.9669L21.5132 32.295L32.17 39.9669C33.5644 40.9611 20.5173 19.4366 21.5132 18.7076C22.476 17.9785 36.934 38.5584 36.3863 36.9843L32.17 24.7225L42.9264 17.1666C44.3208 16.2055 21.895 19.8343 21.5132 18.7076C21.1314 17.5808 43.0426 12.3115 41.3163 12.3281L28.1198 12.4275L24.0861 0.0828778C23.5549 -1.52441 22.725 18.7076 21.5132 18.7076C20.2849 18.7076 19.4383 -1.52441 18.9071 0.0828778L14.8901 12.4275L1.67697 12.3281C-0.0493679 12.3115 21.895 17.5974 21.5132 18.7076C21.1148 19.8509 -1.31092 16.2055 0.0668275 17.1666L10.8232 24.7225L6.60698 36.9843C6.0592 38.5584 20.5339 17.9785 21.5132 18.7076Z" fill="white"/>
</g>
<defs>
<clipPath id="clip0_475_6036">
<rect width="111" height="40" fill="white"/>
</clipPath>
</defs>
</svg>
