<svg width="111" height="40" viewBox="0 0 111 40" fill="none" xmlns="http://www.w3.org/2000/svg">
<g clip-path="url(#clip0_641_6205)">
<path d="M52.7029 6.29663H50.7939V12.9246C50.7939 14.5816 51.1757 15.841 51.9559 16.7026C52.7195 17.5642 53.8648 17.9951 55.3588 17.9951C56.8527 17.9951 57.9981 17.5642 58.7782 16.7026C59.5584 15.841 59.9568 14.5816 59.9568 12.9246V6.29663H58.0479V13.0241C58.0479 14.1177 57.8155 14.9462 57.3839 15.493C56.9523 16.0398 56.2717 16.3049 55.3588 16.3049C54.4458 16.3049 53.7818 16.0398 53.3502 15.493C52.9187 14.9462 52.7029 14.1177 52.7029 13.0241V6.29663Z" fill="white"/>
<path d="M62.9617 14.1177L61.0859 14.0846C61.0859 14.8468 61.2851 15.5261 61.6835 16.1227C62.0819 16.7192 62.6297 17.1666 63.3269 17.498C64.024 17.8294 64.8208 17.9951 65.7504 17.9951C66.5803 17.9951 67.3107 17.846 67.9747 17.5477C68.622 17.2494 69.1366 16.8186 69.5018 16.2718C69.867 15.7416 70.0496 15.1285 70.0496 14.4325C70.0496 13.7366 69.867 13.1566 69.535 12.7258C69.1864 12.295 68.7382 11.9802 68.2071 11.7482C67.6593 11.5328 67.0119 11.3505 66.2649 11.2179C65.518 11.0854 64.9536 10.9694 64.5552 10.8534C64.1568 10.754 63.8248 10.5883 63.5924 10.3563C63.3601 10.1409 63.2439 9.84264 63.2439 9.46153C63.2439 8.93129 63.443 8.53361 63.8414 8.23535C64.2398 7.93709 64.7876 7.78795 65.4682 7.78795C66.1653 7.78795 66.7297 7.97022 67.1945 8.33476C67.6427 8.69931 67.9083 9.17984 67.9747 9.77636H69.8504C69.8172 9.08042 69.6014 8.46733 69.2362 7.92051C68.8544 7.39027 68.3399 6.95945 67.6925 6.64462C67.0285 6.34636 66.2981 6.18066 65.4682 6.18066C64.6548 6.18066 63.941 6.32979 63.3103 6.61148C62.6795 6.90974 62.1981 7.30742 61.8495 7.8211C61.5009 8.35134 61.3349 8.93129 61.3349 9.59409C61.3349 10.3232 61.5009 10.9031 61.8329 11.3339C62.1649 11.7813 62.6131 12.1127 63.1443 12.3281C63.6754 12.5435 64.3228 12.7092 65.0864 12.8418C65.8168 12.9744 66.3977 13.1069 66.8127 13.2229C67.2111 13.3555 67.5431 13.5212 67.7755 13.7532C68.0079 13.9851 68.1407 14.2834 68.1407 14.6645C68.1407 15.2113 67.9083 15.6421 67.4767 15.9404C67.0451 16.2387 66.4641 16.3878 65.767 16.3878C64.9536 16.3878 64.2896 16.1889 63.7916 15.7747C63.2937 15.3604 63.0115 14.8136 62.9617 14.1177Z" fill="white"/>
<path d="M76.4236 14.1177L74.5479 14.0846C74.5479 14.8468 74.747 15.5261 75.1454 16.1227C75.5438 16.7192 76.0916 17.1666 76.7888 17.498C77.4859 17.8294 78.2827 17.9951 79.2123 17.9951C80.0422 17.9951 80.7726 17.846 81.4366 17.5477C82.084 17.2494 82.5985 16.8186 82.9637 16.2718C83.3289 15.7416 83.5115 15.1285 83.5115 14.4325C83.5115 13.7366 83.3289 13.1566 82.9969 12.7258C82.6483 12.295 82.2002 11.9802 81.669 11.7482C81.1212 11.5328 80.4738 11.3505 79.7269 11.2179C78.9799 11.0854 78.4155 10.9694 78.0171 10.8534C77.6187 10.754 77.2867 10.5883 77.0544 10.3563C76.822 10.1409 76.7058 9.84264 76.7058 9.46153C76.7058 8.93129 76.905 8.53361 77.3033 8.23535C77.7017 7.93709 78.2495 7.78795 78.9301 7.78795C79.6273 7.78795 80.1916 7.97022 80.6564 8.33476C81.1046 8.69931 81.3702 9.17984 81.4366 9.77636H83.3123C83.2791 9.08042 83.0633 8.46733 82.6981 7.92051C82.3164 7.39027 81.8018 6.95945 81.1544 6.64462C80.4904 6.34636 79.7601 6.18066 78.9301 6.18066C78.1167 6.18066 77.4029 6.32979 76.7722 6.61148C76.1414 6.90974 75.66 7.30742 75.3114 7.8211C74.9628 8.35134 74.7968 8.93129 74.7968 9.59409C74.7968 10.3232 74.9628 10.9031 75.2948 11.3339C75.6268 11.7813 76.075 12.1127 76.6062 12.3281C77.1374 12.5435 77.7847 12.7092 78.5483 12.8418C79.2787 12.9744 79.8597 13.1069 80.2746 13.2229C80.673 13.3555 81.005 13.5212 81.2374 13.7532C81.4698 13.9851 81.6026 14.2834 81.6026 14.6645C81.6026 15.2113 81.3702 15.6421 80.9386 15.9404C80.507 16.2387 79.926 16.3878 79.2289 16.3878C78.4155 16.3878 77.7515 16.1889 77.2535 15.7747C76.7556 15.3604 76.4734 14.8136 76.4236 14.1177Z" fill="white"/>
<path d="M85.0555 10.9859V15.5924C85.0555 16.3877 85.2381 16.9677 85.6032 17.3322C85.9684 17.7133 86.566 17.8956 87.3794 17.8956H89.1057V16.3214H87.7446C87.4126 16.3214 87.1968 16.2552 87.064 16.1226C86.9312 15.99 86.8648 15.7415 86.8648 15.4101V10.9859H88.9065V9.41175H86.8648V7.04224H85.0555V9.41175H83.5781V10.9859H85.0555Z" fill="white"/>
<path d="M97.6043 16.3379H97.2558C96.874 16.3379 96.6914 16.1391 96.6914 15.7414V12.3943C96.6914 11.4001 96.376 10.6379 95.7618 10.1076C95.131 9.57738 94.2513 9.31226 93.1225 9.31226C92.0436 9.31226 91.1804 9.56081 90.5164 10.0248C89.8524 10.4887 89.4707 11.1515 89.3877 11.9966H91.1472C91.2136 11.6321 91.4128 11.3338 91.7448 11.1018C92.0768 10.8698 92.5083 10.7538 93.0395 10.7538C93.6205 10.7538 94.0853 10.903 94.4173 11.1681C94.7493 11.4332 94.9152 11.8143 94.9152 12.2783V12.792H92.7739C91.5788 12.792 90.6824 13.0405 90.0682 13.5045C89.4375 13.9684 89.1387 14.6478 89.1387 15.5094C89.1387 16.2882 89.4209 16.9013 90.0018 17.3321C90.5662 17.7795 91.3298 17.9949 92.2926 17.9949C93.5209 17.9949 94.4505 17.5144 95.0978 16.5368C95.0978 16.9842 95.214 17.3156 95.463 17.5475C95.6954 17.7795 96.0938 17.8955 96.6582 17.8955H97.6043V16.3379ZM94.9152 14.1176V14.4158C94.8986 15.0786 94.6829 15.6089 94.2679 16.0065C93.8529 16.4042 93.2719 16.6031 92.5415 16.6031C92.0436 16.6031 91.6618 16.5036 91.3796 16.2717C91.0974 16.0562 90.9646 15.758 90.9646 15.3934C90.9646 14.9792 91.114 14.6644 91.4128 14.449C91.7116 14.2335 92.1266 14.1176 92.6909 14.1176H94.9152Z" fill="white"/>
<path d="M102.784 9.41162H102.385C101.721 9.41162 101.207 9.52761 100.825 9.75959C100.426 9.99157 100.111 10.2898 99.8787 10.6875L99.6795 9.41162H98.0859V17.8955H99.8787V13.637C99.8787 12.9079 100.045 12.2948 100.377 11.8143C100.709 11.3337 101.24 11.0852 101.987 11.0852H102.784V9.41162Z" fill="white"/>
<path d="M50.1963 23.8608V25.551H53.7817V35.4598H55.6907V25.551H59.2761V23.8608H50.1963Z" fill="white"/>
<path d="M63.9408 26.9761H63.5424C62.8784 26.9761 62.3638 27.0921 61.9821 27.324C61.5837 27.556 61.2683 27.8543 61.0359 28.252L60.8367 26.9761H59.2432V35.4599H61.0359V31.2014C61.0359 30.4723 61.2019 29.8593 61.5339 29.3787C61.8659 28.8982 62.397 28.6496 63.144 28.6496H63.9408V26.9761Z" fill="white"/>
<path d="M72.1904 26.9761H70.3977V31.1849C70.3977 32.0631 70.1985 32.759 69.8167 33.2561C69.4183 33.7532 68.8871 34.0018 68.2065 34.0018C67.5426 34.0018 67.0612 33.7863 66.7292 33.3555C66.3972 32.9247 66.2312 32.295 66.2312 31.4665V26.9761H64.4385V31.6488C64.4385 33.0241 64.7373 34.0183 65.368 34.6314C65.9822 35.2611 66.7956 35.5593 67.7916 35.5593C68.8871 35.5593 69.7669 35.1782 70.4143 34.3829L70.6134 35.4599H72.1904V26.9761Z" fill="white"/>
<path d="M80.0255 34.7307C80.706 34.1673 81.1376 33.4051 81.3036 32.4109H79.4777C79.3615 32.908 79.1291 33.3056 78.7639 33.6039C78.3987 33.9022 77.9339 34.0347 77.3862 34.0347C76.6558 34.0347 76.0748 33.7862 75.6432 33.2559C75.2116 32.7257 74.9958 32.0463 74.9958 31.2012C74.9958 30.3727 75.2116 29.7099 75.6432 29.1797C76.0748 28.666 76.6558 28.4009 77.3862 28.4009C77.9173 28.4009 78.3655 28.55 78.7307 28.8317C79.0959 29.13 79.3283 29.5111 79.4611 29.9916H81.3036C81.1376 29.0306 80.706 28.2849 80.0421 27.7215C79.3615 27.1582 78.4983 26.8765 77.436 26.8765C76.5728 26.8765 75.8258 27.0587 75.1784 27.4233C74.5311 27.7878 74.0331 28.2849 73.6845 28.9311C73.3193 29.5939 73.1533 30.3396 73.1533 31.2012C73.1533 32.0629 73.3193 32.8251 73.6679 33.4879C74.0165 34.1507 74.5145 34.6644 75.1618 35.0289C75.7926 35.3935 76.5396 35.5592 77.3862 35.5592C78.4485 35.5592 79.3283 35.294 80.0255 34.7307Z" fill="white"/>
<path d="M82.2334 23.8608V35.4598H84.0261V33.2892L85.5367 31.6985L88.0598 35.4598H90.1845L86.8148 30.3894L89.9853 26.976H87.9104L84.0261 31.1185V23.8608H82.2334Z" fill="white"/>
<path d="M92.342 23.8939C92.1263 23.6951 91.8608 23.5791 91.5621 23.5791C91.2468 23.5791 90.9812 23.6951 90.7821 23.8939C90.5664 24.0928 90.4668 24.3579 90.4668 24.6562C90.4668 24.971 90.5664 25.2361 90.7821 25.4349C90.9812 25.6338 91.2468 25.7332 91.5621 25.7332C91.8608 25.7332 92.1263 25.6338 92.342 25.4349C92.5412 25.2361 92.6573 24.971 92.6573 24.6562C92.6573 24.3579 92.5412 24.0928 92.342 23.8939ZM90.6659 26.976V35.4598H92.4582V26.976H90.6659Z" fill="white"/>
<path d="M100.642 27.8044C100.011 27.1913 99.1809 26.8765 98.185 26.8765C97.0064 26.8765 96.0934 27.2907 95.4627 28.0861L95.2635 26.9759H93.7031V35.4597H95.4959V31.1847C95.4959 30.323 95.6951 29.6602 96.0934 29.1631C96.4918 28.666 97.0562 28.4175 97.77 28.4175C98.434 28.4175 98.9319 28.6329 99.2805 29.0471C99.6125 29.478 99.7951 30.091 99.7951 30.8864V35.4597H101.604V30.787C101.604 29.4282 101.272 28.434 100.642 27.8044Z" fill="white"/>
<path d="M111 26.9759H109.44L109.24 28.3015C108.942 27.8707 108.576 27.5227 108.112 27.2576C107.647 27.009 107.082 26.8765 106.452 26.8765C105.688 26.8765 104.991 27.0587 104.393 27.4233C103.779 27.7878 103.298 28.2849 102.949 28.9311C102.601 29.5939 102.435 30.3396 102.435 31.1847C102.435 32.0794 102.601 32.8417 102.949 33.4879C103.281 34.1341 103.763 34.6312 104.377 34.9792C104.974 35.3272 105.671 35.4929 106.452 35.4929C107.68 35.4929 108.593 35.0289 109.224 34.101V35.0455C109.224 36.6362 108.41 37.415 106.784 37.415C106.153 37.415 105.638 37.299 105.24 37.0339C104.841 36.7688 104.576 36.4042 104.476 35.9237H102.65C102.717 36.8682 103.115 37.5973 103.846 38.1109C104.559 38.6246 105.489 38.8732 106.651 38.8732C108.128 38.8732 109.224 38.5583 109.937 37.8955C110.635 37.2327 111 36.3048 111 35.1118V26.9759ZM108.543 33.2228C108.078 33.7364 107.481 33.985 106.75 33.985C106.003 33.985 105.406 33.7364 104.958 33.2062C104.493 32.6925 104.277 32.0132 104.277 31.1847C104.277 30.3562 104.493 29.6934 104.958 29.1631C105.406 28.6495 106.003 28.3843 106.75 28.3843C107.481 28.3843 108.078 28.6495 108.543 29.1797C108.991 29.7099 109.224 30.3893 109.224 31.2178C109.224 32.0463 108.991 32.7091 108.543 33.2228Z" fill="white"/>
<path d="M21.5132 18.7076C22.4926 19.4366 9.42887 40.9611 10.8398 39.9669L21.5132 32.295L32.17 39.9669C33.5644 40.9611 20.5173 19.4366 21.5132 18.7076C22.476 17.9785 36.934 38.5584 36.3863 36.9843L32.17 24.7225L42.9264 17.1666C44.3208 16.2055 21.895 19.8343 21.5132 18.7076C21.1314 17.5808 43.0426 12.3115 41.3163 12.3281L28.1198 12.4275L24.0861 0.0828778C23.5549 -1.52441 22.725 18.7076 21.5132 18.7076C20.2849 18.7076 19.4383 -1.52441 18.9071 0.0828778L14.8901 12.4275L1.67697 12.3281C-0.049368 12.3115 21.895 17.5974 21.5132 18.7076C21.1148 19.8509 -1.31092 16.2055 0.0668275 17.1666L10.8232 24.7225L6.60698 36.9843C6.0592 38.5584 20.5339 17.9785 21.5132 18.7076Z" fill="white"/>
</g>
<defs>
<clipPath id="clip0_641_6205">
<rect width="111" height="40" fill="white"/>
</clipPath>
</defs>
</svg>
