<svg width="230" height="214" viewBox="0 0 230 214" fill="none" xmlns="http://www.w3.org/2000/svg">
<path opacity="0.02" d="M115.085 100.108C120.325 104.007 50.4221 219.139 57.9721 213.821L115.085 172.785L172.109 213.821C179.57 219.139 109.756 104.007 115.085 100.108C120.237 96.2079 197.601 206.288 194.67 197.868L172.109 132.281L229.666 91.865C237.127 86.7244 117.128 106.135 115.085 100.108C113.042 94.0808 230.288 65.8961 221.05 65.9847L150.436 66.5165L128.852 0.486398C126.01 -8.11082 121.569 100.108 115.085 100.108C108.512 100.108 103.982 -8.11082 101.14 0.486398L79.6448 66.5165L8.94202 65.9847C-0.295519 65.8961 117.128 94.1694 115.085 100.108C112.953 106.223 -7.04603 86.7244 0.326238 91.865L57.8832 132.281L35.3223 197.868C32.3912 206.288 109.844 96.2079 115.085 100.108Z" fill="white"/>
</svg>
